<?xml version="1.0" encoding="utf-8"?>
<!-- Generator: Adobe Illustrator 19.2.1, SVG Export Plug-In . SVG Version: 6.00 Build 0)  -->
<svg version="1.1" id="Calque_1" xmlns="http://www.w3.org/2000/svg" xmlns:xlink="http://www.w3.org/1999/xlink" x="0px" y="0px"
	 viewBox="0 0 150 40" style="enable-background:new 0 0 150 40;" xml:space="preserve">
<style type="text/css">
	.st0{fill:#FFFFFF;}
</style>
<g id="XMLID_1519_">
	<g>
		<g id="XMLID_754_">
			<g>
				<path id="XMLID_775_" class="st0" d="M56.1,30.8c0.1,0.2,0.1,0.3-0.2,0.3h-1c-0.1,0-0.2,0-0.3-0.2l-2.8-3.5
					c-1.2-1.5-2.3-3-4.4-3h-0.7v6.4c0,0.2-0.1,0.2-0.2,0.2h-0.8c-0.2,0-0.2-0.1-0.2-0.2V10.3c0-0.2,0.1-0.2,0.2-0.2h0.8
					c0.2,0,0.2,0.1,0.2,0.2v13h0.7c1.7,0,3.2-1.7,4.4-3.1l2.7-3.2c0.1-0.1,0.2-0.2,0.3-0.2h1c0.2,0,0.3,0.2,0.2,0.3l-3.1,3.6
					c-1.1,1.3-2.2,2.6-3.2,2.9c-0.2,0.1-0.2,0.2,0,0.3c1.2,0.4,2.2,1.6,3.4,3L56.1,30.8z"/>
				<path id="XMLID_772_" class="st0" d="M69.2,24c0,4.6-2.4,7.5-6.4,7.5s-6.4-2.9-6.4-7.5c0-4.6,2.4-7.5,6.4-7.5S69.2,19.4,69.2,24
					z M57.8,24c0,3.9,1.9,6.2,5.1,6.2c3.2,0,5.1-2.3,5.1-6.2c0-3.9-1.9-6.2-5.1-6.2C59.7,17.8,57.8,20.1,57.8,24z"/>
				<path id="XMLID_769_" class="st0" d="M83,30.9c0,0.2-0.1,0.2-0.2,0.2h-0.7c-0.2,0-0.2-0.1-0.2-0.2v-2.1c0-0.3-0.2-0.3-0.4,0
					c-1.1,1.6-2.7,2.7-4.8,2.7c-3.8,0-6-2.9-6-7.5c0-4.7,2.3-7.4,6.3-7.5c1.4,0,2.5,0.2,3.8,0.8l0.9,0.5v-7.5c0-0.2,0.1-0.2,0.2-0.2
					h0.8c0.2,0,0.2,0.1,0.2,0.2V30.9z M80.4,18.4c-1-0.5-2-0.7-3.4-0.7c-3.2,0-5.1,2.3-5.1,6.2c0,3.8,1.8,6.2,4.8,6.2
					c3.4,0,5-2.9,5-6.8v-4.3L80.4,18.4z"/>
				<path id="XMLID_766_" class="st0" d="M98.1,24c0,4.6-2.4,7.5-6.4,7.5c-3.9,0-6.4-2.9-6.4-7.5c0-4.6,2.4-7.5,6.4-7.5
					C95.6,16.5,98.1,19.4,98.1,24z M86.6,24c0,3.9,1.9,6.2,5.1,6.2c3.2,0,5.1-2.3,5.1-6.2c0-3.9-1.9-6.2-5.1-6.2
					C88.5,17.8,86.6,20.1,86.6,24z"/>
				<path id="XMLID_764_" class="st0" d="M113.8,30.7c0.2,0.3,0,0.5-0.3,0.5h-4.3c-0.2,0-0.4-0.1-0.5-0.3l-1.6-3.2
					c-0.6-1.1-1.2-1.9-2.6-1.9h-0.2v5c0,0.2-0.2,0.4-0.4,0.4h-4c-0.2,0-0.4-0.2-0.4-0.4V9.6c0-0.2,0.2-0.4,0.4-0.4h4
					c0.2,0,0.4,0.2,0.4,0.4v11.9h0.3c1.3,0,1.8-1,2.4-2.1l1.5-2.9c0.1-0.2,0.2-0.3,0.5-0.3h4.3c0.3,0,0.4,0.2,0.3,0.5l-2.4,4.7
					c-0.5,1-1.3,1.6-2.2,2c-0.1,0-0.1,0.2,0,0.2c0.9,0.4,1.9,1.1,2.4,2L113.8,30.7z"/>
				<path id="XMLID_761_" class="st0" d="M127.7,23.7c0,4.7-2.8,7.7-7.3,7.7c-4.5,0-7.3-3-7.3-7.7c0-4.7,2.8-7.7,7.3-7.7
					C124.9,16,127.7,19,127.7,23.7z M117.7,23.7c0,2.2,1,3.5,2.7,3.5c1.6,0,2.6-1.3,2.6-3.5c0-2.2-1-3.5-2.6-3.5
					C118.8,20.3,117.7,21.6,117.7,23.7z"/>
				<path id="XMLID_758_" class="st0" d="M134.4,30.6c0,3-1.4,5.1-4.5,6.9l-0.7,0.4c-0.2,0.2-0.4,0.1-0.5-0.2l-1.7-3.2
					c-0.1-0.2-0.1-0.4,0.2-0.5l0.5-0.3c1.3-0.8,2-1.7,2-3.1V20.5h-1.6c-0.2,0-0.4-0.2-0.4-0.4v-3.4c0-0.2,0.2-0.4,0.4-0.4h5.9
					c0.2,0,0.4,0.2,0.4,0.4V30.6z M134.4,11.7c0,1.7-1,2.8-2.7,2.8c-1.7,0-2.7-1.1-2.7-2.8c0-1.7,1-2.7,2.7-2.7
					C133.4,9,134.4,9.9,134.4,11.7z"/>
				<path id="XMLID_755_" class="st0" d="M150,23.7c0,4.7-2.8,7.7-7.3,7.7c-4.5,0-7.3-3-7.3-7.7c0-4.7,2.8-7.7,7.3-7.7
					C147.2,16,150,19,150,23.7z M140,23.7c0,2.2,1,3.5,2.7,3.5c1.6,0,2.6-1.3,2.6-3.5c0-2.2-1-3.5-2.6-3.5
					C141,20.3,140,21.6,140,23.7z"/>
			</g>
		</g>
		<g id="XMLID_683_">
			<path id="XMLID_743_" class="st0" d="M30.4,36.6c-0.7-0.4-1.2-0.9-1.7-1.4c-0.9-0.4-1.6-1.1-2.2-1.9c-0.4-0.4-0.9-0.9-1.1-1.4
				c0,0,0,0-0.1,0c0,0,0,0,0,0.1c-0.1-0.1-0.2-0.2-0.3-0.3c0-0.2,0.3-0.1-0.2-0.3c0.1,0.1,0.2,0.1,0.2,0.2c-0.2-0.8-2.4-1.6-2.6-2.7
				c-0.8-1-1.8-1.9-2.7-2.9c-0.4-0.5-1-1.5-1.6-1.8c-0.1,0-0.2-0.4-0.3-0.4c0.1,0-0.7,0.3-0.6,0.5c-0.1,0.1-0.2,0.2-0.3,0.3
				c0,0.1,0.1,0.2,0.1,0.3c0,0,0-0.1,0-0.1c0.1,0,0,0.2,0,0.2c0,0.1,0,0.2,0,0.2c0,0-0.1,0-0.1,0c0,0-0.2,0.4-0.1,0.4
				c-0.1,0-0.3-0.1-0.3-0.3c0,0.1-0.1,0.1-0.2,0.1c0,0.3,0,0.5,0,0.8c0,0,0.1-0.1,0.1-0.1c-0.1,0-0.1-0.1,0-0.2
				c0.2,0.2,0.3,0.4,0.4,0.6c0,0-0.1,0-0.1,0.1c0.1,0,0.3,0,0.2,0.1c0.2-0.1,0.1,0.8-0.4,0.6c0,0,0-0.1,0-0.1
				c-0.1,0-0.1,0.1-0.1,0.1c0,0-0.1-0.1-0.1-0.1c0,0,0-0.1,0-0.1c-0.1,0.2-0.4,1-0.1,1.2c0,0.1-0.1,0.1-0.2,0
				c0.1,0.2-0.1,0.4-0.1,0.6C16,28.8,16,29,16,29c0.1-0.1,0.1-0.2,0.2,0c-0.2,0.2,0.3,0.6-0.2,0.6c0,0.1,0,0.2,0.1,0.2
				c0,0,0-0.1,0-0.1c0,0.1,0,0.1,0,0.2c0,0,0.1,0,0.1,0c0,0.1,0,0.2-0.1,0.2c0-0.1,0-0.1,0-0.2c0,0.1-0.1,0.1-0.1,0.2
				c0,0,0.1,0,0.1,0c0.2,0.4-0.3,0.6-0.2,0.8c0,0,0.1,0,0.1,0c0,0.5-0.4,1-0.4,1.4c0-0.1-0.1-0.1-0.1-0.1c0,0.1,0,0.2,0,0.2
				c-0.1,0.1-0.2,0.3-0.2,0.5c0,0-0.1-0.1-0.1,0c0,0-0.4,0.8-0.4,0.8c-0.1-0.1-0.1-0.2-0.1-0.3c0,0.1-0.1,0.2,0,0.4
				c-0.1,0-0.1-0.1-0.1-0.2c-0.1,0.1-0.2,0.1-0.1,0.3c0.1,0,0.2,0,0.3,0c0,0-0.6,1.4-0.5,1.4c-0.2,0.1-0.3,0.6-0.5,0.8
				c-0.1,0.2-0.5,0.7-0.5,0.8c-0.1,0.5-0.2,0.1,0.2,0.3c-0.2,0.2-0.3,0.4-0.4,0.6c0,0,0,0-0.1,0c-0.1,0.2-0.2,0.4-0.4,0.5
				c0,0,0,0,0,0.1c0,0.1-0.1,0.1-0.2,0.1c6,2.5,13,1.9,18.5-1.6C30.7,36.8,30.5,36.7,30.4,36.6C29.9,36.4,30.5,36.7,30.4,36.6z
				 M16.8,25.9c0,0,0,0.3,0,0.3c-0.1,0-0.2-0.4-0.2-0.4c0.3-0.2-0.2,0-0.1,0c-0.2,0,0.1-0.4,0.2-0.4c0,0,0,0.2,0,0.3c0,0,0,0,0.1,0
				C16.7,25.8,16.7,25.8,16.8,25.9C16.8,25.9,16.8,25.9,16.8,25.9C16.8,25.9,16.8,25.9,16.8,25.9z M16.4,28.1
				C16.4,28.2,16.4,28.2,16.4,28.1c-0.1,0-0.1-0.2-0.1-0.3C16.4,27.9,16.4,28,16.4,28.1z M16.6,28.5c0,0.1,0,0.2,0,0.3
				C16.4,28.8,16.4,28.7,16.6,28.5c0,0-0.1-0.1-0.1-0.1C16.6,28.3,16.6,28.3,16.6,28.5z M16.7,27.7C16.7,27.7,16.7,27.7,16.7,27.7
				c0,0.3-0.3,0.7-0.3,0.2c0,0,0.1,0.1,0.1,0.1c0,0,0.2-0.4,0.1-0.5c0.1,0,0.1,0,0.2,0C16.9,27.6,16.8,27.7,16.7,27.7z M17.2,24.6
				C17.2,24.6,17.2,24.5,17.2,24.6l0.2-0.1v0.2C17.2,24.6,17.2,24.6,17.2,24.6C17.2,24.6,17.2,24.6,17.2,24.6z M17,26.4
				C17,26.5,17,26.5,17,26.4c-0.1,0-0.1-0.1,0-0.1C17,26.4,17,26.4,17,26.4C17,26.5,17,26.4,17,26.4z M17,25.5
				C17,25.5,17,25.5,17,25.5C17,25.4,17,25.4,17,25.5c0.1,0,0.1,0.1,0.1,0.2c0,0-0.1,0-0.1,0C17,25.6,17,25.5,17,25.5
				C17,25.5,17,25.5,17,25.5z M17.3,26.2c-0.1-0.1-0.2,0-0.2-0.1c0,0,0.2-0.2,0.2-0.2c0.1,0,0,0.2,0,0.2
				C17.2,26.1,17.3,26.1,17.3,26.2C17.3,26.1,17.3,26.2,17.3,26.2C17.2,26.2,17.3,26.2,17.3,26.2z M17.3,25.6
				c-0.1,0.4-0.1-0.9,0-0.4c0,0,0,0,0.1,0C17.4,25.3,17.4,25.5,17.3,25.6C17.3,25.7,17.4,25.5,17.3,25.6z"/>
			<path id="XMLID_742_" class="st0" d="M19.1,19.1C19.1,19.1,19.1,19.1,19.1,19.1c-0.1,0-0.2,0-0.2,0c0,0-0.1-0.1-0.1-0.1
				c0,0,0,0,0,0c0,0.1,0.1,0.1,0.2,0.1c0,0.1,0,0.1,0.1,0.1l0,0c0,0.1,0.1,0.1,0.1,0.1c0,0,0.1-0.1,0.1-0.1c0,0,0,0-0.1-0.1
				C19.1,19.2,19.1,19.2,19.1,19.1C19.1,19.2,19.1,19.1,19.1,19.1C19.1,19.1,19.1,19.1,19.1,19.1z"/>
			<path id="XMLID_741_" class="st0" d="M18.4,23.1c-0.1,0,0,0.1,0,0.1C18.5,23.3,18.5,23.1,18.4,23.1
				C18.3,23.2,18.5,23.1,18.4,23.1z"/>
			<path id="XMLID_740_" class="st0" d="M18.5,23.6L18.5,23.6L18.5,23.6l0.1-0.2c0-0.1,0-0.1,0-0.1C18.5,23.4,18.5,23.5,18.5,23.6z"
				/>
			<path id="XMLID_739_" class="st0" d="M19.3,19.1C19.3,19.1,19.3,19.1,19.3,19.1l0.1-0.1c0,0,0,0-0.1,0V19.1c-0.1,0-0.1,0.1,0,0.1
				C19.3,19.2,19.3,19.1,19.3,19.1z"/>
			<path id="XMLID_738_" class="st0" d="M19.1,24C19.1,24,19.1,24,19.1,24c0,0,0,0.1,0,0.1c0.1,0,0.2,0,0.2,0v0.1c0,0,0,0,0,0
				c0,0,0,0,0,0v0v0.1c0-0.1-0.1-0.2-0.1-0.2h0.1c-0.1,0-0.1,0.1-0.1,0.2l0,0c0.1,0,0.2,0,0.2,0.1v-0.1c0,0,0,0,0-0.1c0,0,0,0,0-0.1
				c0,0-0.1,0-0.1-0.1c0,0,0,0,0-0.1c0,0,0.2,0,0,0v0c0,0,0,0,0,0c0,0,0,0-0.1,0c0,0,0,0-0.1,0C19.2,24,19.2,24,19.1,24L19.1,24
				L19.1,24z"/>
			<path id="XMLID_737_" class="st0" d="M20.9,26.8C20.9,26.8,20.9,26.8,20.9,26.8L20.9,26.8c0,0.1,0,0.1,0,0.2c0,0,0,0,0,0l0,0
				c0,0.1,0,0.1,0,0.1c0,0-0.1,0.1-0.1,0.1c0,0,0-0.1,0.1-0.1l0.1,0.1c0.2,0.2,0,0.2,0.1,0.1c0.1,0,0.1,0,0.1,0.1
				C21.2,27.1,21.1,26.9,20.9,26.8C20.9,26.8,21,26.9,20.9,26.8z"/>
			<path id="XMLID_736_" class="st0" d="M21.9,28c-0.1-0.2-0.2-0.3-0.3-0.5C21.5,27.6,21.9,28.1,21.9,28c0,0.1,0,0.2,0,0.2
				c0.1,0,0.1,0.1,0.2,0.1c0,0.1,0,0.1,0.1,0.2c0,0,0,0,0,0c0,0.1,0.1-0.1,0.2,0c0,0,0-0.3,0.1-0.3h0c0,0,0.1,0.3,0.2,0.4
				c0-0.2-0.4-0.4-0.5-0.5c0,0-0.1-0.2-0.2-0.2C21.9,27.9,21.9,28,21.9,28C21.8,27.8,21.9,28,21.9,28z"/>
			<path id="XMLID_735_" class="st0" d="M13.1,23.8L13.1,23.8c0.1,0,0.1-0.2,0.2-0.2c0,0,0.1-0.1,0.1-0.1c0,0,0.2,0,0.2,0
				c0.1,0,0.2,0,0.3-0.1c0,0,0,0,0.1,0c0,0,0,0,0.1,0c0,0,0,0,0,0c-0.1,0-0.1,0-0.2,0c-0.1,0.1-0.2,0.3-0.3,0.3
				c-0.1,0-0.2,0.2-0.3,0.2h-0.1c-0.1,0-0.1-0.3-0.1-0.3c-0.1,0-0.1-0.2-0.2-0.1c0,0,0,0,0,0c0,0,0,0,0,0.1c0,0,0,0,0,0l0-0.1
				c0,0,0,0.2,0,0.2C13,23.6,13,23.8,13.1,23.8L13.1,23.8L13.1,23.8z"/>
			<path id="XMLID_734_" class="st0" d="M12.6,17.2C12.7,17.2,12.7,17.3,12.6,17.2C12.7,17.2,12.7,17.2,12.6,17.2c0.2,0,0.2,0,0.3,0
				c0.1-0.1,0.1-0.1,0.1-0.1c0,0,0,0,0,0c0,0-0.1,0-0.1,0c0,0,0,0-0.1,0h0c-0.1,0-0.1,0-0.1,0C12.7,17.1,12.6,17.1,12.6,17.2
				L12.6,17.2z"/>
			<path id="XMLID_733_" class="st0" d="M22.8,29.2c0,0,0,0.1,0,0.1c0.1,0.1,0.1,0.1,0.1,0.1v-0.1c0,0,0.2,0,0.2,0
				c0,0,0-0.1-0.1-0.1c0,0,0,0,0,0c0,0,0,0,0,0c0,0-0.1-0.1-0.1-0.2c0,0,0,0,0,0c0,0,0,0.1,0,0.1L22.8,29c-0.1,0-0.1,0-0.1,0
				C22.7,29.1,22.7,29.2,22.8,29.2C22.8,29.3,22.7,29.2,22.8,29.2z"/>
			<path id="XMLID_732_" class="st0" d="M15.3,18.8L15.3,18.8l0.1,0.1c0,0.1,0.1,0.1,0.2,0.1c0-0.1,0-0.2,0-0.2h-0.1
				c0,0,0,0-0.1,0.1c-0.1,0-0.1-0.1-0.1-0.2c0,0,0-0.1-0.1-0.1c0,0-0.1,0-0.1-0.1c0,0,0,0,0,0c0,0.1,0,0.2-0.1,0.3L15.3,18.8z"/>
			<path id="XMLID_731_" class="st0" d="M15.5,18.3L15.5,18.3l0.1,0.1h0.1c0,0,0-0.1,0-0.1c-0.1,0-0.2-0.1-0.2-0.2
				C15.5,18.1,15.5,18.2,15.5,18.3C15.5,18.3,15.5,18.3,15.5,18.3z"/>
			<path id="XMLID_730_" class="st0" d="M20.1,15.4c0-0.1,0-0.1-0.1-0.2c0,0,0,0-0.1,0.1v0.1c0,0,0,0,0,0L20.1,15.4
				C20,15.4,20,15.4,20.1,15.4C20,15.4,20,15.5,20,15.5c0,0,0,0,0.1,0V15.4z"/>
			<path id="XMLID_729_" class="st0" d="M20.5,14L20.5,14c0,0.1,0.1,0.1,0.1,0.1h0L20.5,14C20.6,14,20.5,13.9,20.5,14L20.5,14z"/>
			<path id="XMLID_728_" class="st0" d="M20.7,13C20.7,13,20.7,13,20.7,13c-0.1,0-0.1,0.1-0.2,0.1c0.1,0.1,0.1,0.1,0.1,0.1
				c0,0.1,0,0.2,0.1,0.3c0,0,0.1,0,0.1-0.1c0,0,0-0.1-0.1-0.1C20.8,13.2,20.8,13.2,20.7,13C20.8,13.1,20.7,13,20.7,13
				C20.7,13,20.7,13,20.7,13z"/>
			<path id="XMLID_727_" class="st0" d="M19.5,18.1c0,0,0.1-0.1,0.1-0.1c0,0,0-0.1,0-0.1l0,0c0,0,0,0.1,0,0.1c0,0,0,0-0.1,0
				c0,0-0.1,0-0.1,0C19.5,18,19.5,18,19.5,18.1C19.6,18.1,19.5,18,19.5,18.1z"/>
			<path id="XMLID_725_" class="st0" d="M19.8,9.3C19.8,9.3,19.8,9.4,19.8,9.3c0.1,0,0.1,0.1,0.2,0.1c0,0,0,0.1,0,0.1
				c0,0,0-0.1,0,0.2h0.3v0c0,0,0,0,0,0.1c0-0.1,0-0.2,0-0.2c0,0-0.1,0-0.1,0l0,0c0,0-0.1,0-0.1,0c0,0,0-0.1,0-0.1
				C20,9.4,19.9,9.3,19.8,9.3C19.8,9.3,19.8,9.3,19.8,9.3C19.8,9.3,19.8,9.3,19.8,9.3z"/>
			<path id="XMLID_724_" class="st0" d="M20.4,14.6C20.4,14.6,20.3,14.6,20.4,14.6c-0.1,0-0.1,0.1-0.1,0.1c0,0,0.1,0,0.1,0
				c0,0,0,0,0.1,0c0,0,0.1,0,0.1-0.1L20.4,14.6C20.4,14.7,20.4,14.7,20.4,14.6z"/>
			<path id="XMLID_723_" class="st0" d="M20.2,6.5c0.1,0,0.1,0,0.2,0.1c0,0,0-0.1,0-0.1c0,0,0,0,0,0c0,0,0,0,0,0
				c0-0.1-0.1-0.1-0.1-0.2h0C20.3,6.3,20.3,6.3,20.2,6.5c0-0.1,0.1-0.1,0.1-0.1C20.3,6.4,20.3,6.4,20.2,6.5
				C20.3,6.5,20.3,6.4,20.2,6.5z"/>
			<path id="XMLID_722_" class="st0" d="M20.9,11.5C20.8,11.6,20.8,11.6,20.9,11.5l-0.1,0.1c0,0,0.1,0,0.1,0v-0.1
				C21,11.5,20.9,11.5,20.9,11.5z"/>
			<path id="XMLID_721_" class="st0" d="M32.8,35.2C32.8,35.2,32.8,35.2,32.8,35.2l0.1-0.2C32.8,35.1,32.8,35.1,32.8,35.2L32.8,35.2
				C32.7,35.2,32.7,35.2,32.8,35.2z"/>
			<path id="XMLID_720_" class="st0" d="M32.5,35.2h0.1c0-0.1-0.1-0.1-0.1-0.2c0,0,0,0-0.1,0c0,0,0,0,0-0.1c-0.1,0-0.1,0-0.1,0.1
				c0,0,0,0.1,0,0.1c0,0,0,0,0,0c0,0,0,0,0,0c0,0,0,0,0.1-0.1C32.4,35.1,32.4,35.1,32.5,35.2L32.5,35.2z"/>
			<path id="XMLID_719_" class="st0" d="M33.5,34.8C33.5,34.7,33.5,34.7,33.5,34.8c0-0.1,0-0.1-0.1-0.1h0L33.5,34.8L33.5,34.8
				C33.4,34.8,33.4,34.8,33.5,34.8z"/>
			<path id="XMLID_718_" class="st0" d="M33.2,34.8c-0.1-0.1-0.1-0.1-0.1,0v0.1c0,0.1,0,0.1,0.1,0.2l0.1-0.1h-0.1
				C33.1,34.9,33.1,34.9,33.2,34.8C33.2,34.9,33.2,34.8,33.2,34.8C33.1,34.7,33.2,34.8,33.2,34.8z"/>
			<path id="XMLID_717_" class="st0" d="M23.3,29.5c0,0-0.1,0-0.1,0.1C23.3,29.5,23.3,29.5,23.3,29.5c0,0.1,0,0.1,0,0.2
				c0,0,0.1,0,0.1,0l-0.1,0.1h-0.1c0,0,0,0.1,0.1,0.1c0,0,0.1,0.1,0.1,0.1v-0.2C23.4,29.6,23.4,29.5,23.3,29.5
				C23.3,29.5,23.3,29.5,23.3,29.5z"/>
			<path id="XMLID_713_" class="st0" d="M15.5,19.5c0,0-0.3-0.2-0.3-0.1c-0.1-0.1-0.1-0.2-0.1-0.3c0,0,0-0.1-0.1-0.1
				c-0.1-0.1-0.1-0.1-0.1-0.2c-0.1,0-0.2,0.1-0.2,0.2c0,0,0,0,0-0.1c-0.1,0.3-0.1-0.1-0.1-0.1c0,0,0-0.1,0-0.1
				c-0.2-0.2,0,0.1-0.1,0.4c0.1,0.1,0,0.2-0.1,0.2c0,0,0,0,0,0c0.1,0-0.1-0.2-0.1-0.2c-0.1,0,0,0.3-0.1,0.3c-0.1,0-0.2-0.4-0.3-0.4
				c-0.1,0-0.3-0.1-0.3-0.2c-0.1,0-0.2,0-0.3,0c0,0,0,0-0.1,0c0-0.3-0.1,0-0.2,0c0.1-0.5-0.7,0.2-0.5,0.3c0,0,0,0,0,0.1
				c0,0,0-0.1,0-0.1c0,0,0,0,0,0c0,0-0.1,0-0.1,0c0.4,0.3-0.3,0.2-0.3,0.5c0,0.1,0,0.1,0,0.2c0,0.2-0.1,0.3-0.2,0.3
				c0,0,0.1,0.1,0.1,0.2c0,0.1-0.1,0.1-0.1,0.2c0,0.1,0,0.2,0,0.3c0,0,0,0,0.1,0.1c0,0,0,0.1-0.1,0.1c0,0,0,0.1,0.1,0.1
				c-0.1,0.1-0.1,0.2-0.1,0.2c0,0,0,0,0,0c0,0,0.1,0,0.1,0c0,0,0,0,0,0c0,0-0.1,0.1-0.1,0.1c-0.2,0.1,0,0.4,0,0.6
				c0.6,0,0.2,0.1,0.3,0.1c0,0,0.3,0,0.4,0.1c0.2-0.1,0.2,0.1,0.4,0.1c0.1,0,0.1,0.1,0.2,0.1c0.2,0,0.3-0.1,0.4-0.1
				c0.1-0.1,0.4-0.2,0.6-0.3c0,0,0,0,0,0c-0.1,0,0-0.1,0,0c0,0,0.1,0,0.1,0c0,0,0.2,0,0.2,0c0.1-0.1,0.2-0.1,0.3-0.1
				c0.1-0.1,0.2-0.1,0.3-0.2c0,0,0,0,0,0c0.1,0,0.1-0.1,0.1-0.2c0.1-0.3-0.2-0.5,0-0.8c0.1,0-0.1-0.1-0.1-0.1
				c-0.1-0.1-0.1-0.2-0.2-0.3c0,0,0,0,0.1,0c0.1,0,0.1,0,0.1-0.1c0-0.1-0.1-0.1-0.1-0.1c0-0.2,0.1,0,0.2,0c0.1,0.1,0.1,0.1,0.1,0.1
				c0-0.1,0-0.1,0-0.1c0,0,0,0,0,0c0,0-0.1,0-0.1,0c0-0.1,0-0.1,0-0.1c0,0,0,0,0,0c0,0,0,0,0-0.1c0,0,0,0,0.1,0c0-0.1,0-0.1-0.1-0.2
				c0,0,0,0.1-0.1,0.1c0,0-0.2-0.3-0.2-0.3c0,0,0,0,0,0c0,0-0.1,0-0.1,0c0,0,0,0,0,0c0,0,0-0.1,0-0.1c0,0,0,0,0,0c0,0,0,0,0.1,0
				c0,0,0,0,0,0c0.1-0.1,0.2,0,0.2,0.1c0,0,0.1,0,0.1,0c0.1,0.1,0.1,0.2,0.1,0.3c0,0,0.1,0.1,0.1,0.1c0,0,0.1,0,0.1,0
				c0-0.1,0-0.1,0-0.1c0-0.1,0.3-0.1,0.3,0c0,0,0.3-0.2,0.2-0.2C15.8,19.5,15.7,19.5,15.5,19.5z M12.7,19L12.7,19L12.7,19L12.7,19
				L12.7,19z M14.9,19.7c0.1,0.1,0.1,0.2,0,0.3c0,0,0-0.1-0.1-0.1C15,19.9,15,19.8,14.9,19.7c0,0.1-0.1,0.1-0.1,0.2
				c-0.1-0.1-0.1-0.2-0.2-0.3C14.8,19.5,14.9,19.6,14.9,19.7C15,19.8,14.9,19.6,14.9,19.7z"/>
			<path id="XMLID_712_" class="st0" d="M27.1,1.6c0,0.1,0,0.1,0,0.2c-0.3,0.2-0.7,1.1-0.8,1.4C26.2,3.5,26,3.9,26,4.1
				C26,4.4,26,5,25.8,5.3c0.2,0.3,0.1,2.6,1.3,1.9c2-1.2,1.8-2.3,2.2-4.4c0.1-0.2,0-0.4-0.1-0.6c-0.6-0.3-1.3-0.6-2-0.9
				C27.2,1.4,27.1,1.6,27.1,1.6z"/>
			<path id="XMLID_711_" class="st0" d="M27.8,8.3c0,0-0.7,0.4-0.8,0.1c-0.1-0.2,0.7-0.2,0.7-0.2C27.8,8.2,27.9,8.3,27.8,8.3z"/>
			<path id="XMLID_710_" class="st0" d="M30.5,5.7c0.1-0.1,0.2,0,0.1,0.2C30.5,5.9,30.5,5.8,30.5,5.7C30.6,5.7,30.5,5.8,30.5,5.7z"
				/>
			<path id="XMLID_709_" class="st0" d="M13.1,9.4c0.1-0.1,0.2,0,0.1,0.2C13,9.6,13,9.5,13.1,9.4C13.1,9.4,13.1,9.5,13.1,9.4z"/>
			<path id="XMLID_708_" class="st0" d="M9.3,11.5c0,0-0.9,0.2-0.9-0.1c0-0.3,0.8,0,0.8,0C9.4,11.4,9.4,11.4,9.3,11.5z"/>
			<path id="XMLID_707_" class="st0" d="M11.6,2.9c0.1,0,0.1,0,0.2,0c0.1,0,0.2,0,0.3,0.1c0.2,0.2,0.3,0.4,0.3,0.6
				c-0.1,0-0.2-0.1-0.3-0.1c-0.2-0.2-0.5-0.3-0.7-0.3c0,0-0.1,0-0.1-0.1C11.5,2.9,11.6,2.9,11.6,2.9C11.7,2.9,11.6,2.9,11.6,2.9z"/>
			<path id="XMLID_706_" class="st0" d="M7.9,8.5c0-0.3,0.3-0.7,0.2-0.9c0.2-0.2,0.5-0.9,0.5-1.2C8.7,6,9,5.7,9.1,5.4
				c0.2-0.4,0.8-1.2,1.3-1.3c0.1-0.2,0.6-1,0.9-0.8c0.1,0,0.2,0.1,0.2,0c0.5-0.3,1.1,0.6,1.1,1c0,0.2,0.1,1.3-0.1,1.5
				c-0.4,0.8-0.4,1.6-0.9,2.4C11,9.2,10,9.6,8.9,10C8.2,10.1,7.8,8.9,7.9,8.5z"/>
			<path id="XMLID_692_" class="st0" d="M31.4,4c0,0-0.1,0.1-0.1,0.1c0.1,0.1-0.1,0.3-0.1,0.4c0.1,0.3-0.3,0.8-0.3,1
				c0,0-0.1,0.8-0.4,0.4c0.2,0.3-0.9,1.3-0.9,1.4C29.6,7.3,29.9,7,29.8,7c0,0-0.3,0.3-0.4,0.3c0,0.1,0,0.2,0,0.2
				C29.9,7.3,28.9,8.1,29,8c-0.1,0-0.1,0-0.1,0c0,0-0.1,0.1-0.1,0.2c0,0-0.1,0.1-0.1,0.1c-0.1,0-0.2,0-0.2,0
				c-0.3,0.7-1.4,0.5-1.9,0.4c-0.1,0-0.2-0.1-0.3-0.1c-0.7-0.3-1-1-1.6-1.3c-0.1,0-0.1-0.1-0.2-0.1c-0.7-1.2-0.6-2.4-0.3-3.7
				c0.1-0.9,0.7-1.9,1.1-2.7c-4.3-1.1-8.9-0.8-13,0.9c0.2,0,0.4,0.1,0.5,0.2c0.2,0,0.4,0.1,0.6,0.2c1,0.8,1.3,2.1,1.3,3.3
				c0,0.3-0.1,2.5-0.2,2.5c0,0-0.1,0.1-0.1,0.1c0.1,0.1-0.2,0.3-0.2,0.4c0,0.3-0.6,0.8-0.6,1.1c0,0-0.4,0.8-0.5,0.4
				c0.1,0.4-1.4,1.2-1.4,1.3c0-0.1,0.4-0.3,0.3-0.4c0,0-0.5,0.2-0.5,0.2c-0.1,0.1-0.1,0.2-0.1,0.3c0.6-0.1-0.8,0.4-0.6,0.4
				c-0.1,0-0.1,0-0.2,0c0,0-0.1,0.1-0.2,0.1c0,0-0.1,0-0.2,0.1c-0.1,0-0.2-0.1-0.2-0.1c-0.5,0.7-1.7,0.2-2.2-0.1
				c-0.1-0.1-0.2-0.2-0.3-0.2c-0.7-0.5-0.8-1.3-1.4-1.9C6.1,9.3,6.1,9.2,6,9.1c-0.4-1.4,0-2.8,0.7-4C1.5,9.7-1,16.9,0.3,23.8
				c0-0.8,0.3-1.5,0.6-2.2c0.4-1.4,1.7-3.1,2.8-4.1c1.2-1,1.5-0.2,2.6,0.3c0.2,0,0.4,0.1,0.6,0.2c1,0.7,1.5,1.9,1.7,3.1
				c0,0.3,0.2,2.4,0.1,2.4c0,0-0.1,0.1-0.1,0.1c0.1,0.1-0.1,0.3-0.2,0.4C8.5,24.2,8,24.7,8,25c0,0-0.3,0.8-0.5,0.4
				c0.2,0.4-1.2,1.3-1.2,1.4c-0.1-0.1,0.4-0.4,0.3-0.4c0,0-0.4,0.3-0.4,0.3c-0.1,0.1,0,0.2,0,0.3c0.6-0.2-0.7,0.5-0.6,0.5
				c-0.1,0-0.1,0-0.2,0c0,0-0.1,0.1-0.1,0.2c0,0-0.1,0-0.2,0.1c-0.1,0-0.2,0-0.2,0c-0.4,0.7-1.6,0.4-2.1,0.1c-0.1,0-0.2-0.1-0.3-0.2
				c-0.7-0.4-1-1.2-1.5-1.7c1.4,4.7,4.5,8.6,8.6,11.2c1.6-1.3,2.1-4,2.6-5.9c0.3-1.2,0.5-2.5,0.9-3.7c0.4-1.6,0.6-2.1-1.3-2.1
				c0.2,0,0.4-0.1,0.6-0.1c-0.1-0.4-1.3-0.3-1.1-0.9c0.1-0.4,1.3-0.4,1.7-0.5c-0.4-0.1-1-0.6-1-0.9c-0.1-0.3-0.7-0.8-0.7-1.1
				c-0.3-0.5-0.4-1-0.4-1.6c0,0,0.1,0,0.1,0c-0.6-0.5,0.5-2.9,0.9-3.1c0,0,0,0.1,0,0.1c0,0,1.3-0.8,1.3-0.8c0.1,0.2,0.2,0.1,0.2,0.1
				c0.1-0.1,0.2-0.1,0.2,0c0,0,0-0.1,0-0.1c0.4-0.1,0.3,0.4,0.6,0.4c-0.3,0.3,0.2,1.5,0.6,0.8c0-0.1,0-0.2,0-0.3
				c0,0.3,1.1,0.4,1.1,0.4c0-0.2,0-0.3,0.1-0.5c0.6-2.7,0.7-5.6,1-8.4c0.1-0.5,0-1.3,0.1-1.7c0.1-0.2,0.4-0.3,0.4-0.5
				c0-0.1,0.2-1.7,0.2-1.7c0,0,0.1,0,0.1,0c0,0.1,0.8-0.5,0.6-0.5c0.1,0.1,0.2,0.1,0.3,0c0.2-0.1,1.9-0.3,1.7,0.2
				c0,0,0.1-0.1,0.1-0.1c0.1,0,0.1,0.1,0.1,0.1c0,0-0.1,0.1-0.1,0.1c0,0-0.2,0-0.2,0c0,0.3,0.3,0.1,0.3,0.3c0.1,0,0.5,0.1,0.2,0.3
				c0,0,0.1,0,0.1,0c0,0,0,0.1,0.1,0.1c-0.1,0-0.1,0.1-0.2,0.2c0.1,0.1,0.3,0.1,0.4,0.2c0,0,0,0,0,0.1c0.1,0.1,0.3,0.2,0.4,0.3
				c0,0.1-0.1,0.2-0.1,0.3c0,0,0.1,0,0.1,0c0,0.1,0.1,0.2,0.2,0.1c0,0-0.4-0.2,0-0.3c0,0.1,0,0.1,0,0.2c0.3,0,0.1,0.7,0.1,0.8
				c-0.1,0-0.1,0-0.2-0.1c0,0,0,0.1-0.1,0.1c-0.1-0.5,0.4-1-0.5-0.7c0.1,0.1,0.2,0.1,0.2,0.2C21.3,7,21.2,7,21,7c0,0,0-0.1,0-0.1
				c0,0,0,0,0,0c0-0.1,0.1-0.1,0.1-0.1c0,0-0.2,0-0.2,0c0,0,0,0,0,0c0,0,0,0,0,0c-0.1-0.1-0.2,0-0.3,0c0-0.1,0-0.2,0-0.2
				c0.1,0,0.2,0.1,0.3,0.1c0.1-0.1,0.1,0.3,0.3,0c0.1,0,0.1,0,0.2-0.1c0-0.1-0.1-0.1-0.2-0.1c0,0-0.1,0-0.1-0.1
				c0.1-0.1,0.1-0.2-0.1-0.4c0,0,0,0-0.1,0c0,0,0-0.1,0-0.1C21,5.9,21,6,20.9,6.1c0,0,0-0.1,0-0.1c-0.1,0.1-0.1,0.2-0.1,0.3
				c-0.1-0.1-0.4,0.4-0.4,0.4c0.2,0,0.2,0.3,0.1,0.4c0.1,0,0.2-0.1,0.3-0.2c-0.1,0.2,0,0.5,0.2,0.6c-0.1,0-0.2-0.1-0.3-0.2
				c0,0.2-0.2-0.1-0.2-0.2c-0.1,0-0.2,0.1-0.2,0.1c0,0,0.6,0.7,0.7,0.6c-0.1-0.1-0.2-0.1-0.2-0.1c0,0.1,0.2,0.4-0.1,0.3
				c0,0.1,0.1,0.2,0.2,0.2c-0.1-0.2-0.1-0.3,0.1-0.3c0,0-0.1,0.1-0.1,0.1c0.3,0.1,0,0.6,0.1,0.6c-0.2,0.2-0.5,0.3-0.6,0.5
				c-0.1-0.1-0.1-0.1-0.2-0.2c0.1,0,0.1,0,0.2,0c-0.1-0.1-0.2-0.2,0-0.3c0.1,0,0.2,0.1,0.3,0.1c0-0.1-0.1-0.2-0.1-0.3
				c0.2,0-0.1-0.4-0.1-0.1C20.5,8.4,20,9,20,9c0,0,0.1,0,0.1,0c0,0.1,0,0.3,0,0.4c0,0,0.1-0.1,0.1-0.1c0.1,0.2,0.1,0.4,0.2,0.6
				c0.2-0.2,0.7,0.3,0.4-0.5c-0.1,0.1-0.2,0.2-0.4,0.2c0,0,0.2-0.4,0.3-0.4c0,0-0.2-0.4,0.2-0.1c0.2,0.2,0,1.1-0.1,1.3
				c0.2,0,0.1,0.7,0,0.6c0,0.2,0.5,0.2,0.2,0.4c0.1-0.1,0.2-0.1,0.3,0c0,0.1-0.1,0.2-0.1,0.3c0.1,0,0.1,0.1,0.2,0.1
				c-0.1,0.1-0.2,0.3-0.1,0.4c-0.1,0-0.1,0,0,0.2c-0.2,0-0.1-0.2-0.5-0.2c0-0.1,0-0.2,0-0.2c0,0.1-0.1,0.1-0.2,0.1
				c0,0,0,0.1-0.1,0.1c0-0.1,0-0.1,0-0.2c0,0,0.1,0,0.1,0c0-0.1,0-0.3-0.1-0.4c0,0.1,0,0.2-0.1,0.3c0-0.2,0-0.4,0-0.6
				c-0.3,0.1,0,0.6-0.3,0.6c0,0,0.1,0,0.1,0c-0.1,0.2,0.3,0.1,0.4,0.1c-0.1,0.2-0.1,0.3-0.3,0.4c0,0,0.1,0,0.1,0
				c0-0.1,0.2-0.2,0.2,0c0,0,0.1,0,0.1,0c0,0,0,0.1,0,0.2c0,0,0.1,0,0.1,0c0,0.1,0,0.2,0,0.3c0.2-0.2,0.3,0,0.2,0
				c0.1,0.1,0.1,0.3,0,0.3c0,0-0.1,0.4,0.1,0.3c0,0.1-0.1,0.2-0.1,0.2c0,0,0-0.1-0.1-0.1c0,0-0.3,1.1-0.3,1.2
				c-0.1,0-0.1-0.1-0.2-0.1c0,0-0.1,0.1,0,0.2c0,0-0.1,0-0.1,0c0,0.1,0,0.2,0,0.4c0,0,0,0,0.1-0.1c0,0.2-0.1,0.3-0.3,0.2
				c0.2,0.4,0.2,0.8,0,1.1c0.1,0,0.1,0,0.2,0c-0.3,0-0.3,1.3-0.6,1.2c0.6,0.2-0.6,1-0.4,0.8c-0.1,0-0.3,0.1-0.2,0.2
				c0.1-0.1,0.2,0,0.1,0.2c0.1,0,0.2,0.1,0.1,0.2c0.3-0.1,1.8-1.2,1.8-1.3c0.1-0.4,0.9-0.9,1.3-1.2c0,0,0,0.1,0,0.1
				c0-0.5,1.5-1.4,1.8-1.7c0,0.1,0,0.1,0,0.2c0-0.8,1.8-2.1,2.3-2.6c0,0,0.1,0.1,0.1,0.1c0,0,0-0.1-0.1-0.1c0.1-0.1,0.2,0,0.2,0.1
				c0.1,0,0.1,0,0.2,0c-0.1-0.1-0.1-0.2-0.3-0.1c0.2-0.3,0.2-0.1,0.4-0.2c-0.1,0-0.1,0-0.2,0c0.1-0.2,0.4-0.4,0.6-0.4
				c0,0-0.1-0.1-0.1-0.1c0.2,0.1,0.3,0,0.2-0.2c0,0,0,0-0.1,0.1c0-0.2,0-0.3,0.2-0.3c0,0.1,0,0.1,0.1,0.1c0-0.1,0-0.2,0.1-0.2
				c0,0,0,0.1,0,0.1c0,0,0.1-0.1,0.1-0.2c0,0,0-0.1,0-0.1c0-0.1,0.1-0.1,0.2-0.1c-0.1-0.5,1.7-1.5,1.7-0.9c0.1-0.1,0.1-0.1,0-0.2
				c0,0,0.1,0,0.1,0C30,9.9,30,9.8,30.2,9.8c0-0.4,1.3-1.6,1.6-1.2c0.1,0,0.1,0,0.1,0.1c-0.1,0.3,0.2,1.2-0.3,1.3c0,0,0.1,0,0.1,0
				c-0.4,0.4-1,1.2-1.3,1.7c0,0.1,0.1,0.1,0.1,0.2c-0.1,0.1-0.3,0.3-0.4,0.4c0,0-0.1,0-0.1-0.1c0,0,0,0.1,0.1,0.1
				c-0.1,0.2-0.3,0.3-0.5,0.3c0.1,0.1-0.3,0.3-0.3,0.3c0,0.3-0.5,0.4-0.6,0.6c0,0-0.1-0.1-0.1,0c0,0,0,0,0,0.1
				c-0.1,0.1-0.3,0.3-0.4,0.4c0-0.1,0-0.1,0.1-0.2c0,0-0.1,0-0.1,0c0,0-0.3,0.4-0.2,0.4c-0.1,0-0.2,0.1-0.2,0.2c-0.1,0-0.1,0-0.2,0
				c0,0.1,0,0.1-0.1,0.2c0,0,0-0.1,0-0.1c-0.2,0.2-1.7,1.5-1.7,1.6c0.1,0.1,0,0.2-0.1,0.2c0,0,0-0.1,0-0.1c0,0.1-0.1,0.3,0,0.4
				c-0.1,0-0.1,0-0.1,0.1c0,0,0-0.1,0-0.1c-0.1,0.1-0.7,0.8-0.8,0.8c-0.1,0-0.1-0.1-0.2-0.1c0,0.1,0.1,0.2,0,0.3
				c0,0-0.1-0.1-0.1-0.2c-0.1,0.1-0.3,0.2-0.3,0.4c-0.1,0-0.1,0-0.2,0.1c0,0.1,0,0.1,0,0.2c0,0-0.1,0-0.1,0.1c0-0.1,0-0.1,0-0.2
				c-0.1,0.1-0.2,0.1-0.3,0.2c0,0,0,0.1,0,0.1c0,0-0.1-0.1,0-0.1c-0.1,0.3-1,0.9-1.2,1c0,0-0.1,0-0.1,0c0,0.1-0.1,0.1-0.1,0.1
				c0,0.1,0,0.1-0.1,0.2c0,0,0,0,0.1,0.1c-0.2-0.1-0.8,0.3-0.8,0.5c-0.1,0-0.2,0-0.3,0c0,0-0.5,0.3-0.5,0.4c-0.1,0-0.2,0.1-0.2,0.2
				c0.1,0.2-0.3,0.2-0.2,0.4c0,0-0.1,0-0.1,0c-0.1,0.1-0.2,0.2-0.3,0.4c0,0,0.1,0,0.1,0.1c0,0.1,0.1,0.2,0.2,0.2c0,0,0-0.1,0.1-0.1
				c0.1,0.1,0.2,0.2,0.3,0.3c-0.3,0,0.1,0.2,0.1,0.4c0,0,0.1-0.1,0.2-0.1c0,0,0-0.1-0.1-0.1c0,0,0.3,0.5,0.3,0.6
				c0.1-0.1,0.1-0.2,0.1-0.3c0.3,0.2,0.5,0.5,0.6,0.8c0,0,0-0.1,0.1-0.1c0,0,0.1,0.1,0.1,0.1c-0.3-0.5,0.1-0.3,0.1-0.2
				c0,0,0.1,0,0.1-0.1c0,0.1,0,0.1-0.1,0.1c0.2-0.1,0,0.4,0,0.5c0,0,0.3,0.7,0.7,0.7c0,0.1-0.1,0.2,0,0.3c0,0,0,0,0.1-0.1
				c0,0.1,0.1,0.1,0.2,0.2c0,0-0.1,0-0.1,0.1c0.1-0.1,0.3,0.1,0.3,0.2c0-0.1,0.1-0.2,0.2-0.2c0,0.1,0,0.2,0,0.3
				c0.1,0,0.1-0.1,0.1-0.2c0.1,0.1,0.1,0.2,0.1,0.3c0.3-0.1,0.2,0.4,0.2,0.5c0,0,0.1-0.1,0.1-0.2c0,0,0.1,0.1,0.1,0.1
				c0,0,0.1-0.1,0.1-0.1c0,0.1-0.1,0.2-0.1,0.2c0.2,0.1,0.1,0.4,0.2,0.4c0.1,0,0.2-0.1,0.1-0.2c0.2,0.1,0,0.4,0.1,0.5
				c0.2-0.1,0.2,0,0.2,0.2c0,0,0.1,0,0.1,0c0,0.1,0,0.2,0.1,0.3c0,0,0-0.1,0-0.1c-0.1,0,0.6,0.8,0.7,0.9c0,0-0.1,0-0.1,0
				c0.3,0.3,0.9,0.8,0.9,1.2c0-0.1,0-0.1,0-0.2c1,1.3,2.1,2.4,3.1,3.6c1.2,1.4,2.6,1.7,4.5,1.9c0,0,0,0.1,0,0.1c0.1,0,0.3,0,0.4,0
				c0,0,0,0,0,0.1c9.2-8.7,8-24.1-2.5-31.1C31.3,3.5,31.2,4.1,31.4,4z M20.4,4.9C20.3,4.9,20.3,4.9,20.4,4.9
				C20.3,4.8,20.4,4.8,20.4,4.9C20.4,4.8,20.4,4.9,20.4,4.9z M21.1,5.4c0,0-0.1,0-0.1-0.1l0,0c0-0.1,0-0.1-0.1-0.1
				c0.2,0,0.3,0.1,0.3,0.2C21.2,5.4,21.1,5.4,21.1,5.4z M21,12.6C20.9,12.6,20.9,12.6,21,12.6c-0.1-0.1-0.1-0.1-0.1-0.2
				c0,0,0.2,0.2,0.2,0.2C21,12.7,21,12.7,21,12.6C20.9,12.6,21,12.7,21,12.6z M20.5,15.5L20.5,15.5c0,0.1,0,0.1,0,0.1
				c-0.1,0-0.1,0,0,0.1c0,0,0,0.1,0,0.1c-0.1,0-0.1-0.1,0-0.2c0,0-0.1,0-0.1-0.1c0,0,0,0,0,0C20.4,15.6,20.4,15.6,20.5,15.5
				C20.4,15.4,20.5,15.4,20.5,15.5C20.6,15.5,20.5,15.5,20.5,15.5z M20.8,15.2c0,0,0,0.1,0,0.1c0-0.1-0.1-0.1-0.1-0.1l-0.1,0
				c0,0,0,0,0,0.1v0c0,0,0,0,0,0.1l0,0c0,0,0,0,0-0.1c-0.1,0-0.1-0.1,0-0.2l0,0l0,0L20.6,15c0-0.1,0-0.1,0.1-0.1c0,0,0,0.1,0,0.1
				C20.7,15.1,20.7,15.1,20.8,15.2c-0.1-0.1,0-0.1,0-0.1C20.9,15.1,20.9,15.1,20.8,15.2C20.8,15.2,20.9,15.1,20.8,15.2z M21.4,12.7
				c0,0.1-0.1,0.1-0.1,0.2h0c0,0-0.1-0.1-0.1-0.1C21.3,12.7,21.3,12.7,21.4,12.7c-0.1,0-0.1,0-0.2-0.1c0,0-0.1,0-0.1,0
				c0,0,0-0.1,0.1-0.1v-0.1h0c0.1,0,0.1,0,0.2,0C21.4,12.5,21.4,12.6,21.4,12.7C21.3,12.7,21.4,12.6,21.4,12.7z M21.3,9.9
				c0,0-0.1,0.1-0.1,0.2V10c0-0.1,0-0.1-0.1-0.1c0,0,0,0,0,0c0,0,0,0,0,0c0-0.1,0-0.2,0.1-0.3c0.1-0.1,0.1-0.2,0.1-0.3V9.2
				c0-0.1-0.1-0.1,0-0.2c0,0-0.1,0-0.1-0.1c0.1,0,0.1,0,0.1-0.1l0-0.1c0,0.1,0.1,0.1,0.1,0.1c0,0,0.1-0.1,0.2-0.1
				c0,0.1-0.1,0.2-0.1,0.2c0.1,0.2,0,0.4,0,0.5C21.4,9.7,21.3,9.8,21.3,9.9C21.3,9.9,21.4,9.9,21.3,9.9C21.3,9.9,21.4,9.9,21.3,9.9
				C21.3,9.9,21.4,9.9,21.3,9.9z M22,8.7c0,0,0,0.1,0,0.1c0,0,0,0-0.1,0.1c0,0,0,0,0,0.1c-0.1,0.1-0.1,0.1-0.1,0.2c0,0,0,0.1,0,0.1
				c-0.1,0,0,0.3,0,0.4c-0.1,0,0,0.1-0.1,0.1c0.1,0.1,0,0.8-0.1,1c0,0.1,0,0.1-0.1,0.1c0,0-0.1,0-0.1,0c0-0.1,0-0.1-0.1-0.1
				c0.1,0,0.1-0.1,0.2-0.1c0-0.1,0-0.1,0-0.1c0,0-0.2-0.3-0.2-0.5c0.1,0,0.1,0,0.1,0c0,0-0.1-0.4-0.1-0.4c0,0,0.1,0,0.1-0.1
				c0,0,0.1,0.1,0.1,0.1c0-0.1,0-0.1,0-0.2c0,0-0.1-0.1-0.1-0.1c0,0,0-0.1,0-0.1c0.1,0,0-0.3,0-0.2c0.1-0.1,0.1-0.1,0.2-0.2
				c-0.1,0-0.1-0.1-0.1-0.1c0-0.1,0.1-0.1,0.1-0.2c-0.2-0.2-0.2-0.7-0.2-0.7C21.7,7,22,8.3,22,8.5C22,8.6,22,8.6,22,8.7
				C22,8.7,22,8.6,22,8.7z M22.4,7.9c0,0.1-0.1,0.1-0.1,0.2c0,0.2-0.1,0.4-0.3,0.4V8.5c0.1,0,0.2-0.1,0.1-0.2c0-0.1,0.1-0.2,0.1-0.3
				c0.1-0.1,0.1-0.2,0.1-0.3V7.6c0-0.1-0.1-0.1,0-0.2c0,0-0.1,0-0.1-0.1c0.1,0,0.1,0,0.1-0.1l0-0.1C22.4,7.5,22.5,7.6,22.4,7.9
				C22.4,8,22.5,7.8,22.4,7.9z M20.6,20.7c0,0,0-0.1,0-0.1h0.1c0,0,0.1,0,0.1,0C20.8,20.6,20.8,20.6,20.6,20.7
				C20.6,20.7,20.8,20.6,20.6,20.7z M22.7,24.8c-0.1,0-0.2-0.2-0.2-0.3C22.7,24.5,22.7,24.6,22.7,24.8
				C22.8,24.5,22.9,24.7,22.7,24.8z M36.3,24c0.1,0.1-0.1,0.4-0.2,0.5c0.1,0.3-0.5,1-0.5,1.3c0,0-0.3,1-0.5,0.5
				c0.2,0.4-1.4,1.6-1.3,1.7c-0.1-0.1,0.4-0.5,0.3-0.5c0.1,0-0.5,0.3-0.5,0.3c-0.1,0.1,0,0.2,0,0.3c-0.2,0.1-0.5,0.6-0.6,0.6
				c-0.1,0-0.1,0-0.2,0c0,0-0.1,0.1-0.2,0.2c0,0-0.1,0.1-0.2,0.1c-0.1,0-0.2,0-0.3,0c-0.5,0.9-1.8,0.6-2.5,0.3
				c-0.1,0-0.2-0.2-0.4-0.2c-0.3-0.2-0.6-0.4-0.9-0.7c-0.4-0.4-0.6-0.9-1.1-1.2c-0.1-0.1-0.2-0.1-0.2-0.2c-0.8-1.6-0.5-3.2,0-4.9
				c0.3-1.7,1.7-3.7,2.9-4.9c1.4-1.4,1.8-0.6,3.2,0c0.3,0,0.5,0,0.8,0.1c1.2,0.6,1.8,2,2.2,3.2c0.1,0.4,0.5,3.2,0.4,3.2
				C36.4,23.9,36.3,24,36.3,24C36.4,24.1,36.3,24,36.3,24z"/>
			<path id="XMLID_691_" class="st0" d="M5.4,18.9c0.1,0,0.1,0,0.2,0c0.1,0,0.2,0,0.3,0c0.2,0.2,0.3,0.3,0.4,0.6
				c-0.1,0-0.2,0-0.3-0.1c-0.2-0.1-0.5-0.2-0.7-0.3c0,0-0.1,0-0.1-0.1C5.3,19,5.3,18.9,5.4,18.9C5.5,18.9,5.3,18.9,5.4,18.9z"/>
			<path id="XMLID_690_" class="st0" d="M4.1,27.6c0,0-0.8,0.3-0.9,0c0-0.3,0.8-0.1,0.8-0.1C4.2,27.5,4.2,27.5,4.1,27.6z"/>
			<path id="XMLID_689_" class="st0" d="M6.7,21.7c-0.3,0.8-0.2,1.6-0.6,2.4c-0.5,1-1.5,1.6-2.5,2c-1.4,0.5-0.9-1.9-1.1-2.3
				c0.2-0.2,0.3-0.9,0.4-1.2c0.1-0.3,0.3-0.6,0.4-1c0.2-0.4,0.7-1.3,1.1-1.4c0.1-0.2,0.5-1.1,0.8-0.9c0.1,0,0.2,0,0.2,0
				c0.4-0.4,1.2,0.5,1.2,0.8C6.7,20.4,6.9,21.5,6.7,21.7C6.7,21.9,6.8,21.6,6.7,21.7z"/>
			<path id="XMLID_688_" class="st0" d="M7.6,25.3c0,0,0-0.1,0-0.1c0.1-0.1,0.2,0,0.1,0.2C7.7,25.4,7.6,25.4,7.6,25.3z"/>
			<path id="XMLID_687_" class="st0" d="M35.2,26c0.2-0.1,0.2,0,0.2,0.3C35.2,26.2,35.1,26.2,35.2,26C35.2,26,35.2,26.1,35.2,26z"/>
			<path id="XMLID_686_" class="st0" d="M32.1,18.8c0.1,0,0.2,0,0.2,0c0.1-0.1,0.2,0,0.4,0c0.2,0.2,0.4,0.4,0.5,0.6
				c-0.1,0-0.3,0-0.3-0.1c-0.3-0.1-0.6-0.2-0.9-0.2c0,0-0.1,0-0.2-0.1C31.9,18.9,32,18.8,32.1,18.8C32.2,18.9,32,18.8,32.1,18.8z"/>
			<path id="XMLID_685_" class="st0" d="M31.3,29.1c0,0-0.9,0.5-1,0.1c-0.1-0.3,0.9-0.2,0.9-0.2C31.4,29,31.4,29.1,31.3,29.1
				C31.1,29.3,31.3,29.1,31.3,29.1z"/>
			<path id="XMLID_684_" class="st0" d="M33.9,22c-0.3,1.1-0.1,2.1-0.7,3.2c-0.6,1.1-1.6,1.8-2.7,2.3c-0.7,0.3-1.3-0.8-1.5-1.3
				c-0.1-0.4,0.1-1,0-1.3c0.2-0.3,0.3-1.1,0.4-1.4c0.1-0.4,0.3-0.8,0.4-1.2c0.2-0.5,0.7-1.5,1.2-1.8c0.1-0.3,0.5-1.3,0.9-1.1
				c0.1,0,0.2,0,0.3,0c0.5-0.5,1.4,0.5,1.5,0.9C33.7,20.5,34.1,21.7,33.9,22C33.8,22.2,33.9,21.9,33.9,22z"/>
		</g>
	</g>
</g>
</svg>
