<?xml version="1.0" encoding="utf-8"?>
<!-- Generator: Adobe Illustrator 19.2.1, SVG Export Plug-In . SVG Version: 6.00 Build 0)  -->
<svg version="1.1" id="Calque_1" xmlns="http://www.w3.org/2000/svg" xmlns:xlink="http://www.w3.org/1999/xlink" x="0px" y="0px"
	 viewBox="0 0 24 16" style="enable-background:new 0 0 24 16;" xml:space="preserve">
<style type="text/css">
	.st0{fill:none;}
	.st1{fill:#60DADF;}
</style>
<rect class="st0" width="24" height="16"/>
<path class="st1" d="M16,0c-4.3,0-8,3.7-8,8s3.7,8,8,8s8-3.7,8-8S20.3,0,16,0z M16,1.1c3.7,0,6.8,3.1,6.9,6.7
	c-0.5,0.5-1.7,1.6-3.1,1.6c-1.8,0-3.3-1.8-3.3-1.8c-0.1-0.1-1.9-2.2-4.2-2.2c-1.2,0-2.2,0.5-2.9,1.1C10,3.5,12.8,1.1,16,1.1z
	 M16,14.9c-3.7,0-6.8-3.1-6.9-6.7c0.5-0.5,1.7-1.6,3.1-1.6c1.8,0,3.3,1.8,3.3,1.8c0.1,0.1,1.9,2.2,4.2,2.2c1.2,0,2.2-0.5,2.9-1.1
	C22,12.5,19.2,14.9,16,14.9z"/>
</svg>
