<?xml version="1.0" encoding="utf-8"?>
<!-- Generator: Adobe Illustrator 19.2.1, SVG Export Plug-In . SVG Version: 6.00 Build 0)  -->
<svg version="1.1" id="Calque_1" xmlns="http://www.w3.org/2000/svg" xmlns:xlink="http://www.w3.org/1999/xlink" x="0px" y="0px"
	 viewBox="0 0 38 24" style="enable-background:new 0 0 38 24;" xml:space="preserve">
<style type="text/css">
	.st0{fill:none;}
	.st1{fill:#FF931E;}
</style>
<rect class="st0" width="38" height="24"/>
<g id="XMLID_342_">
	<g id="XMLID_759_">
		<path id="XMLID_761_" class="st1" d="M26,0c-6.5,0-12,5.5-12,12s5.5,12,12,12c6.5,0,12-5.5,12-12S32.5,0,26,0z M26,22.9
			c-5.9,0-10.9-5-10.9-10.9S20.1,1.1,26,1.1c5.9,0,10.9,5,10.9,10.9S31.9,22.9,26,22.9z"/>
	</g>
	<path id="XMLID_757_" class="st1" d="M3.6,4.8h9.2c0.2,0,0.4,0.2,0.4,0.4v0.4C13.2,5.8,13,6,12.8,6H3.6C3.4,6,3.3,5.8,3.3,5.6V5.2
		C3.3,5,3.4,4.8,3.6,4.8z"/>
	<path id="XMLID_741_" class="st1" d="M2.1,9.1h9.2c0.2,0,0.4,0.2,0.4,0.4v0.4c0,0.2-0.2,0.4-0.4,0.4H2.1c-0.2,0-0.4-0.2-0.4-0.4
		V9.4C1.7,9.2,1.8,9.1,2.1,9.1z"/>
	<path id="XMLID_467_" class="st1" d="M2.1,13.3h9.2c0.2,0,0.4,0.2,0.4,0.4v0.4c0,0.2-0.2,0.4-0.4,0.4H2.1c-0.2,0-0.4-0.2-0.4-0.4
		v-0.4C1.7,13.5,1.8,13.3,2.1,13.3z"/>
	<path id="XMLID_364_" class="st1" d="M3.6,17.5h9.2c0.2,0,0.4,0.2,0.4,0.4v0.4c0,0.2-0.2,0.4-0.4,0.4H3.6c-0.2,0-0.4-0.2-0.4-0.4
		v-0.4C3.3,17.7,3.4,17.5,3.6,17.5z"/>
	<path id="XMLID_346_" class="st1" d="M21.3,6.6l5.3,5.3c0.1,0.1,0.1,0.3,0,0.4l-0.2,0.2c-0.1,0.1-0.3,0.1-0.4,0l-5.3-5.3
		c-0.1-0.1-0.1-0.3,0-0.4l0.2-0.2C20.9,6.5,21.1,6.5,21.3,6.6z"/>
</g>
</svg>
